<?xml version="1.0" encoding="UTF-8"?>
<svg width="227px" height="40px" viewBox="0 0 227 40" version="1.1" xmlns="http://www.w3.org/2000/svg" xmlns:xlink="http://www.w3.org/1999/xlink">
    <!-- Generator: Sketch 41.2 (35397) - http://www.bohemiancoding.com/sketch -->
    <title>registration</title>
    <desc>Created with Sketch.</desc>
    <defs></defs>
    <g id="Page-1" stroke="none" stroke-width="1" fill="none" fill-rule="evenodd">
        <g id="registration">
            <path d="M88.2220253,15.463696 L89.4275933,15.463696 C91.2621533,15.463696 93.3063773,15.647152 93.3063773,17.848624 C93.3063773,20.12872 91.2359453,20.3908 89.4275933,20.3908 L88.2220253,20.3908 L88.2220253,15.463696 Z M84.5529053,30.874 L88.2220253,30.874 L88.2220253,23.27368 L89.4013853,23.27368 C90.9476573,23.27368 91.4194013,23.79784 91.9435613,25.160656 L94.1450333,30.874 L98.2334813,30.874 L95.2981853,23.719216 C94.9312733,22.906768 94.3546973,21.910864 93.3587933,21.83224 L93.3587933,21.779824 C95.6913053,21.465328 97.1327453,19.683184 97.1327453,17.534128 C97.1327453,12.449776 92.4415133,12.580816 88.5103133,12.580816 L84.5529053,12.580816 L84.5529053,30.874 Z M102.327753,22.801936 C102.485001,20.993584 103.480905,19.630768 105.446505,19.630768 C107.412105,19.630768 108.198345,21.098416 108.303177,22.801936 L102.327753,22.801936 Z M110.661897,27.257296 C109.351497,27.99112 107.883849,28.620112 106.180329,28.620112 C104.005065,28.620112 102.485001,27.388336 102.327753,25.213072 L111.657801,25.213072 C111.657801,20.495632 110.242569,17.062384 105.236841,17.062384 C101.043561,17.062384 98.9731293,20.285968 98.9731293,24.19096 C98.9731293,28.620112 101.567721,31.188496 106.023081,31.188496 C107.910057,31.188496 109.377705,30.821584 110.661897,30.113968 L110.661897,27.257296 Z M119.473609,28.148368 C117.455593,28.148368 116.485897,25.89448 116.485897,24.05992 C116.485897,21.989488 117.245929,19.788016 119.630857,19.788016 C121.675081,19.788016 122.566153,21.674992 122.566153,23.981296 C122.566153,26.235184 121.675081,28.148368 119.473609,28.148368 Z M122.723401,17.37688 L122.723401,19.21144 L122.670985,19.21144 C121.701289,17.665168 120.312265,17.062384 118.530121,17.062384 C114.494089,17.062384 112.816777,20.810128 112.816777,24.05992 C112.816777,27.676624 114.336841,30.874 118.320457,30.874 C120.286057,30.874 121.858537,29.878096 122.513737,28.724944 L122.566153,28.724944 C122.566153,31.057456 122.382697,33.966544 118.503913,33.966544 C117.403177,33.966544 115.647241,33.36376 114.572713,32.787184 L114.284425,35.774896 C115.961737,36.482512 117.560425,36.692176 118.949449,36.692176 C124.610377,36.692176 126.078025,33.23272 126.078025,29.5636 L126.078025,17.37688 L122.723401,17.37688 Z M129.045353,30.874 L132.557225,30.874 L132.557225,17.37688 L129.045353,17.37688 L129.045353,30.874 Z M129.045353,14.913328 L132.557225,14.913328 L132.557225,11.558704 L129.045353,11.558704 L129.045353,14.913328 Z M143.780073,17.560336 C142.679337,17.324464 141.604809,17.062384 139.953705,17.062384 C137.201865,17.062384 134.659689,18.346576 134.659689,21.255664 C134.659689,26.130352 140.766153,24.322 140.766153,26.969008 C140.766153,28.279408 139.350921,28.620112 138.459849,28.620112 C137.254281,28.620112 136.101129,28.279408 135.000393,27.72904 L134.790729,30.61192 C136.074921,30.952624 137.437737,31.188496 138.774345,31.188496 C141.631017,31.188496 144.435273,29.930512 144.435273,26.785552 C144.435273,21.910864 138.328809,23.27368 138.328809,21.124624 C138.328809,19.971472 139.455753,19.630768 140.399241,19.630768 C141.683433,19.630768 142.469673,19.840432 143.544201,20.207344 L143.780073,17.560336 Z M147.586057,26.81176 C147.586057,29.484976 149.106121,31.188496 151.857961,31.188496 C152.906281,31.188496 153.718729,31.083664 154.452553,30.874 L154.347721,28.095952 C153.980809,28.331824 153.378025,28.462864 152.749033,28.462864 C151.412425,28.462864 151.097929,27.388336 151.097929,26.235184 L151.097929,19.945264 L154.216681,19.945264 L154.216681,17.37688 L151.097929,17.37688 L151.097929,13.550512 L147.586057,14.677456 L147.586057,17.37688 L144.991465,17.37688 L144.991465,19.945264 L147.586057,19.945264 L147.586057,26.81176 Z M155.978441,30.874 L159.490313,30.874 L159.490313,25.920688 C159.490313,23.981296 159.490313,20.417008 162.346985,20.417008 C162.975977,20.417008 163.604969,20.52184 163.919465,20.705296 L163.919465,17.167216 C163.552553,17.062384 163.185641,17.062384 162.844937,17.062384 C160.748297,17.062384 159.306857,19.185232 159.149609,20.443216 L159.097193,20.443216 L159.097193,17.37688 L155.978441,17.37688 L155.978441,30.874 Z M166.074345,21.098416 C167.253705,20.207344 168.747561,19.630768 170.241417,19.630768 C172.311849,19.630768 173.281545,20.364592 173.281545,22.539856 L171.342153,22.539856 C169.874505,22.539856 168.144777,22.670896 166.808169,23.326096 C165.471561,23.981296 164.501865,25.160656 164.501865,27.178672 C164.501865,29.747056 166.834377,31.188496 169.219305,31.188496 C170.817993,31.188496 172.573929,30.34984 173.386377,28.855984 L173.438793,28.855984 C173.465001,29.275312 173.465001,30.166384 173.596041,30.874 L176.688585,30.874 C176.609961,29.82568 176.557545,28.882192 176.531337,27.86008 C176.505129,26.864176 176.478921,25.842064 176.478921,24.479248 L176.478921,22.74952 C176.478921,18.765904 174.775401,17.062384 170.660745,17.062384 C169.166889,17.062384 167.332329,17.455504 165.969513,18.084496 L166.074345,21.098416 Z M167.856489,26.969008 C167.856489,24.898576 170.189001,24.636496 171.761481,24.636496 L173.281545,24.636496 C173.281545,25.684816 173.124297,26.654512 172.547721,27.414544 C171.997353,28.148368 171.158697,28.620112 170.084169,28.620112 C168.826185,28.620112 167.856489,28.12216 167.856489,26.969008 Z M180.363529,26.81176 C180.363529,29.484976 181.883593,31.188496 184.635433,31.188496 C185.683753,31.188496 186.496201,31.083664 187.230025,30.874 L187.125193,28.095952 C186.758281,28.331824 186.155497,28.462864 185.526505,28.462864 C184.189897,28.462864 183.875401,27.388336 183.875401,26.235184 L183.875401,19.945264 L186.994153,19.945264 L186.994153,17.37688 L183.875401,17.37688 L183.875401,13.550512 L180.363529,14.677456 L180.363529,17.37688 L177.768937,17.37688 L177.768937,19.945264 L180.363529,19.945264 L180.363529,26.81176 Z M188.755913,30.874 L192.267785,30.874 L192.267785,17.37688 L188.755913,17.37688 L188.755913,30.874 Z M188.755913,14.913328 L192.267785,14.913328 L192.267785,11.558704 L188.755913,11.558704 L188.755913,14.913328 Z M194.370249,24.217168 C194.370249,28.095952 196.964841,31.188496 201.420201,31.188496 C205.901769,31.188496 208.496361,28.095952 208.496361,24.217168 C208.496361,19.761808 205.430025,17.062384 201.420201,17.062384 C197.436585,17.062384 194.370249,19.761808 194.370249,24.217168 Z M198.039369,23.79784 C198.039369,21.779824 199.140105,19.788016 201.420201,19.788016 C203.726505,19.788016 204.827241,21.727408 204.827241,23.79784 C204.827241,26.051728 204.119625,28.462864 201.420201,28.462864 C198.746985,28.462864 198.039369,26.02552 198.039369,23.79784 Z M210.520201,30.874 L214.032073,30.874 L214.032073,24.269584 C214.032073,22.539856 214.582441,19.788016 217.124617,19.788016 C219.378505,19.788016 219.404713,22.015696 219.404713,23.6668 L219.404713,30.874 L222.916585,30.874 L222.916585,22.3564 C222.916585,19.316272 221.527561,17.062384 218.330185,17.062384 C216.495625,17.062384 215.001769,17.665168 213.901033,19.21144 L213.848617,19.21144 L213.848617,17.37688 L210.520201,17.37688 L210.520201,30.874 Z" id="Registration" fill="#999999"></path>
            <polygon id="Polygon" fill="#00A1DE" opacity="0.316814366" points="48.428899 9.736 60.794309 16.8751728 60.794309 31.1535184 48.428899 38.2926913 36.0634889 31.1535184 36.0634889 16.8751728"></polygon>
            <polygon id="Polygon-Copy" fill="#58A618" opacity="0.316814366" points="48.428899 1 60.794309 8.13917282 60.794309 22.4175184 48.428899 29.5566913 36.0634889 22.4175184 36.0634889 8.13917282"></polygon>
            <polygon id="Polygon-Copy-2" fill="#EBB700" opacity="0.316814366" points="34.232899 9.736 46.598309 16.8751728 46.598309 31.1535184 34.232899 38.2926913 21.8674889 31.1535184 21.8674889 16.8751728"></polygon>
            <polygon id="Polygon-Copy-4" fill="#999999" opacity="0.316814366" points="65.0799634 9.736 77.4453734 16.8751728 77.4453734 31.1535184 65.0799634 38.2926913 52.7145533 31.1535184 52.7145533 16.8751728"></polygon>
            <polygon id="Polygon-Copy-3" fill="#E98300" opacity="0.316814366" points="14.576899 9.736 26.942309 16.8751728 26.942309 31.1535184 14.576899 38.2926913 2.21148892 31.1535184 2.21148892 16.8751728"></polygon>
        </g>
    </g>
</svg>