<?xml version="1.0" encoding="UTF-8"?>
<svg width="103px" height="41px" viewBox="0 0 103 41" version="1.1" xmlns="http://www.w3.org/2000/svg" xmlns:xlink="http://www.w3.org/1999/xlink">
    <!-- Generator: Sketch 40.3 (33839) - http://www.bohemiancoding.com/sketch -->
    <title>pe</title>
    <desc>Created with Sketch.</desc>
    <defs>
        <polygon id="path-1" points="19.8963366 9.72773109 0.0203960396 9.72773109 0.0203960396 0.329747899 19.8963366 0.329747899"></polygon>
        <polygon id="path-3" points="0.0550693069 7.37478992 24.0656271 7.37478992 24.0656271 0.00369747899 0.0550693069 0.00369747899 0.0550693069 7.37478992"></polygon>
    </defs>
    <g id="Page-1" stroke="none" stroke-width="1" fill="none" fill-rule="evenodd">
        <g id="PKI-4C">
            <g id="Group-4" transform="translate(0.000000, 30.252101)">
                <mask id="mask-2" fill="white">
                    <use xlink:href="#path-1"></use>
                </mask>
                <g id="Clip-2"></g>
                <path d="M0,9.49176471 L2.58451815,9.49176471 L2.58451815,6.21983193 L6.59233993,6.21983193 C8.68327393,6.21983193 9.74964686,5.06453782 9.74964686,3.11428571 C9.74964686,1.88302521 9.09663366,0.329747899 6.39279868,0.329747899 L0,0.329747899 L0,9.49176471 L0,9.49176471 Z M2.58451815,1.99798319 L5.5939538,1.99798319 C6.32651155,1.99798319 7.08524422,2.1005042 7.08524422,3.29411765 C7.08524422,4.52537815 6.15212541,4.55092437 5.35464026,4.55092437 L2.58451815,4.55092437 L2.58451815,1.99798319 L2.58451815,1.99798319 Z" id="Fill-1" fill="#1A1918" mask="url(#mask-2)"></path>
                <path d="M17.2587888,7.43932773 C16.9263333,8.02789916 16.2604026,8.33680672 15.3153861,8.33680672 C13.7159967,8.33680672 13.0232112,7.33512605 13.0232112,6.6810084 L13.0232112,6.65546218 L19.8963366,6.65546218 L19.8963366,6.45008403 C19.8963366,3.85815126 18.4047063,2.35663866 15.3153861,2.35663866 C12.4918944,2.35663866 10.6001617,3.46117647 10.6001617,6.05344538 C10.6001617,8.64403361 12.4918944,9.74789916 15.3153861,9.74789916 C17.4596898,9.74789916 19.0838944,9.06789916 19.7630825,7.43932773 L17.2587888,7.43932773 L17.2587888,7.43932773 Z M13.0232112,5.32201681 L13.0232112,5.29512605 C13.0232112,5.12840336 13.410396,3.76840336 15.2620165,3.76840336 C16.979703,3.76840336 17.4712475,4.92336134 17.4712475,5.29512605 L17.4712475,5.32201681 L13.0232112,5.32201681 L13.0232112,5.32201681 Z" id="Fill-3" fill="#1A1918" mask="url(#mask-2)"></path>
            </g>
            <path d="M21.3077426,32.8662185 L23.5730627,32.8662185 L23.5730627,34.212437 L23.5982178,34.212437 C24.4504323,33.1606723 25.1180627,32.6860504 26.4485644,32.6860504 C26.7157525,32.6860504 27.0349505,32.6991597 27.3004389,32.7505882 L27.3004389,34.8668908 C26.8751815,34.7519328 26.4485644,34.6621849 26.0097096,34.6621849 C24.4120198,34.6621849 23.6515875,35.4447059 23.6515875,36.7791597 L23.6515875,39.7438655 L21.3077426,39.7438655 L21.3077426,32.8662185" id="Fill-5" fill="#1A1918"></path>
            <polyline id="Fill-6" fill="#1A1918" points="28.7108251 30.4282353 31.0560297 30.4282353 31.0560297 35.4315966 34.1603069 32.8662185 37.4209538 32.8662185 34.0256931 35.4826891 37.6351122 39.7438655 34.5321947 39.7438655 32.2019472 36.8820168 31.0560297 37.7680672 31.0560297 39.7438655 28.7108251 39.7438655 28.7108251 30.4282353"></polyline>
            <path d="M38.8860693,32.0188235 L41.2299142,32.0188235 L41.2299142,30.4282353 L38.8860693,30.4282353 L38.8860693,32.0188235 Z M38.8860693,39.7438655 L41.2299142,39.7438655 L41.2299142,32.8662185 L38.8860693,32.8662185 L38.8860693,39.7438655 Z" id="Fill-7" fill="#1A1918"></path>
            <path d="M48.9793894,35.8430252 C48.9793894,34.8927731 48.46133,34.4319328 47.4082145,34.4319328 C46.3166865,34.4319328 45.3968251,34.9583193 45.3968251,36.4208403 L45.3968251,39.7438655 L43.0533201,39.7438655 L43.0533201,32.8662185 L45.3172805,32.8662185 L45.3172805,33.8668908 L45.3437954,33.8668908 C45.7707525,33.2894118 46.8898152,32.6860504 48.260429,32.6860504 C49.4729736,32.6860504 51.3232343,33.1351261 51.3232343,35.1630252 L51.3232343,39.7438655 L48.9793894,39.7438655 L48.9793894,35.8430252" id="Fill-8" fill="#1A1918"></path>
            <polyline id="Fill-9" fill="#909190" points="53.3934323 30.5818487 62.2769274 30.5818487 62.2769274 32.3270588 55.9769307 32.3270588 55.9769307 34.2268908 61.9563696 34.2268908 61.9563696 35.8944538 55.9769307 35.8944538 55.9769307 37.9979832 62.3299571 37.9979832 62.3299571 39.7438655 53.3934323 39.7438655 53.3934323 30.5818487"></polyline>
            <polygon id="Fill-10" fill="#909190" points="63.8729175 39.7438655 66.2181221 39.7438655 66.2181221 30.4282353 63.8729175 30.4282353"></polygon>
            <g id="Group-14" transform="translate(67.986799, 32.605042)">
                <mask id="mask-4" fill="white">
                    <use xlink:href="#path-3"></use>
                </mask>
                <g id="Clip-12"></g>
                <path d="M11.1607129,3.00739496 C11.1607129,2.08268908 10.4013003,1.82689076 9.72211221,1.82689076 C8.75058086,1.82689076 7.95139604,2.34016807 7.95139604,3.41747899 L7.95139604,7.13882353 L5.60755116,7.13882353 L5.60755116,3.00739496 C5.60755116,2.08268908 4.84881848,1.82689076 4.19614521,1.82689076 C3.19809901,1.82689076 2.39755446,2.34016807 2.39755446,3.41747899 L2.39755446,7.13882353 L0.0550693069,7.13882353 L0.0550693069,0.261176471 L2.31766997,0.261176471 L2.31766997,1.26184874 L2.34418482,1.26184874 C2.77114191,0.684369748 3.88850495,0.0810084034 5.26217822,0.0810084034 C6.62089439,0.0810084034 7.3650099,0.59394958 7.72567987,1.37714286 C8.3780132,0.555630252 9.36484158,0.0810084034 10.6688284,0.0810084034 C12.1067492,0.0810084034 13.5055776,0.671596639 13.5055776,2.48134454 L13.5055776,7.13882353 L11.1607129,7.13882353 L11.1607129,3.00739496" id="Fill-11" fill="#909190" mask="url(#mask-4)"></path>
                <path d="M21.4284191,5.08638655 C21.094604,5.67495798 20.430033,5.98386555 19.4850165,5.98386555 C17.8869868,5.98386555 17.1931815,4.98218487 17.1931815,4.32806723 L17.1931815,4.30252101 L24.0656271,4.30252101 L24.0656271,4.09714286 C24.0656271,1.50521008 22.5743366,0.00369747899 19.4850165,0.00369747899 C16.6615248,0.00369747899 14.7697921,1.10823529 14.7697921,3.7005042 C14.7697921,6.29109244 16.6615248,7.39495798 19.4850165,7.39495798 C21.6289802,7.39495798 23.2535248,6.71495798 23.9327129,5.08638655 L21.4284191,5.08638655 L21.4284191,5.08638655 Z M17.1931815,2.96907563 L17.1931815,2.94218487 C17.1931815,2.77546218 17.5796865,1.41546218 19.4319868,1.41546218 C21.1489934,1.41546218 21.6408779,2.57042017 21.6408779,2.94218487 L21.6408779,2.96907563 L17.1931815,2.96907563 L17.1931815,2.96907563 Z" id="Fill-13" fill="#909190" mask="url(#mask-4)"></path>
            </g>
            <path d="M93.3961848,32.8662185 L95.6601452,32.8662185 L95.6601452,34.212437 L95.6866601,34.212437 C96.5405743,33.1606723 97.2051452,32.6860504 98.5370066,32.6860504 C98.802495,32.6860504 99.1233927,32.6991597 99.3902409,32.7505882 L99.3902409,34.8668908 C98.9619241,34.7519328 98.5370066,34.6621849 98.0967921,34.6621849 C96.4987624,34.6621849 95.7400297,35.4447059 95.7400297,36.7791597 L95.7400297,39.7438655 L93.3961848,39.7438655 L93.3961848,32.8662185" id="Fill-15" fill="#909190"></path>
            <path d="M41.2118977,0.139495798 L41.2118977,0.505210084 C44.0887591,2.47932773 45.9668944,5.50689076 45.9668944,9.16840336 C45.9668944,12.829916 44.0887591,15.9620168 41.2118977,17.9354622 L41.2118977,18.1909244 L57.1276073,10.5405042 L41.2118977,0.139495798" id="Fill-16" fill="#0A4A8E"></path>
            <polyline id="Fill-17" fill="#0A4A8E" points="31.1814653 26.6154622 22.4862937 26.6154622 25.9655182 0.181176471 34.6606898 0.181176471 31.1814653 26.6154622"></polyline>
            <path d="M101.048779,31.394958 L101.316987,31.394958 C101.544063,31.394958 101.751762,31.3842017 101.751762,31.1327731 C101.751762,30.9216807 101.562419,30.8890756 101.389393,30.8890756 L101.048779,30.8890756 L101.048779,31.394958 L101.048779,31.394958 Z M100.791109,30.6887395 L101.430525,30.6887395 C101.823488,30.6887395 102.008752,30.8379832 102.008752,31.1438655 C102.008752,31.4319328 101.819409,31.5519328 101.573977,31.5771429 L102.046485,32.2803361 L101.770459,32.2803361 L101.321746,31.5956303 L101.048779,31.5956303 L101.048779,32.2803361 L100.791109,32.2803361 L100.791109,30.6887395 L100.791109,30.6887395 Z M101.343502,32.6480672 C101.997535,32.6480672 102.504036,32.1458824 102.504036,31.4789916 C102.504036,30.8268908 101.997535,30.3247059 101.343502,30.3247059 C100.68233,30.3247059 100.175488,30.8268908 100.175488,31.4789916 C100.175488,32.1458824 100.68233,32.6480672 101.343502,32.6480672 L101.343502,32.6480672 Z M101.343502,30.1243697 C102.114472,30.1243697 102.761026,30.7102521 102.761026,31.4789916 C102.761026,32.2618487 102.114472,32.8484034 101.343502,32.8484034 C100.568112,32.8484034 99.9188383,32.2618487 99.9188383,31.4789916 C99.9188383,30.7102521 100.568112,30.1243697 101.343502,30.1243697 L101.343502,30.1243697 Z" id="Fill-18" fill="#1A1918"></path>
        </g>
    </g>
</svg>